<?xml version="1.0" encoding="UTF-8" standalone="no"?>
<svg version="1.1" xmlns="http://www.w3.org/2000/svg" xmlns:xlink="http://www.w3.org/1999/xlink" xmlns:sketch="http://www.bohemiancoding.com/sketch/ns"
    preserveAspectRatio="xMinYMin meet"
    viewBox="0 0 236 83">
    <!-- Generator: Sketch 3.1 (8751) - http://www.bohemiancoding.com/sketch -->
    <title>Vector 1</title>
    <desc>Created with Sketch.</desc>
    <defs></defs>
    <g id="Page-1" stroke="none" stroke-width="1" fill="none" fill-rule="evenodd" sketch:type="MSPage">
        <g id="Logo" sketch:type="MSLayerGroup">
            <path d="M64.7889545,40.4444444 L64.7889545,51.1239316 L76.3053717,51.1239316 L76.3053717,60.6410256 L64.7889545,60.6410256 L64.7889545,81.5641026 L55,81.5641026 L55,31 L77.9608566,31 L77.9608566,40.4444444 L64.7889545,40.4444444 Z M81.3597992,81.5641026 L81.3597992,31 L91.1487537,31 L91.1487537,72.0470085 L104.320656,72.0470085 L104.320656,81.5641026 L81.3597992,81.5641026 Z M125.761985,71.6837607 L118.420269,71.6837607 L116.90874,81.5641026 L106.543964,81.5641026 L116.045008,31 L127.993291,31 L137.566313,81.5641026 L127.273515,81.5641026 L125.761985,71.6837607 Z M120.79553,54.3205128 L119.787844,62.3846154 L124.322433,62.3846154 L123.386724,54.3205128 L122.30706,44.0769231 L121.875194,44.0769231 L120.79553,54.3205128 Z M151.761896,31 C153.825265,31 155.720656,31.254271 157.448127,31.7628205 C159.175598,32.2713701 160.663121,33.1189399 161.910739,34.3055556 C163.158357,35.4921712 164.130045,37.0420132 164.825832,38.9551282 C165.521619,40.8682432 165.869507,43.2051144 165.869507,45.965812 C165.869507,49.4045756 165.413654,52.2136643 164.501933,54.3931624 C163.590212,56.5726605 162.198659,58.3162328 160.327232,59.6239316 L167.524992,81.5641026 L157.520105,81.5641026 L151.617941,61.8760684 L149.674546,61.8760684 L149.674546,81.5641026 L139.885591,81.5641026 L139.885591,31 L151.761896,31 Z M149.674546,40.4444444 L149.674546,52.3589744 L151.186075,52.3589744 C151.905855,52.3589744 152.577639,52.2742174 153.201448,52.1047009 C153.825257,51.9351843 154.389076,51.6082645 154.892922,51.1239316 C155.396768,50.6395987 155.792641,49.9978672 156.080553,49.1987179 C156.368465,48.3995687 156.512418,47.3461604 156.512418,46.0384615 C156.512418,44.1011299 156.044569,42.6844774 155.108855,41.7884615 C154.173141,40.8924457 152.961531,40.4444444 151.473986,40.4444444 L149.674546,40.4444444 Z M195.180388,31.0726496 L195.180388,69.2136752 C195.180388,73.5726714 194.100735,76.7934369 191.941396,78.8760684 C189.782057,80.9586999 186.591082,82 182.368374,82 C173.874974,82 169.628338,77.7379344 169.628338,69.2136752 L169.628338,31.0726496 L179.417292,31.0726496 L179.417292,69.4316239 C179.417292,70.5940229 179.7052,71.4052684 180.281024,71.8653846 C180.856847,72.3255009 181.552624,72.5555556 182.368374,72.5555556 C183.184125,72.5555556 183.867905,72.3255009 184.419736,71.8653846 C184.971567,71.4052684 185.247479,70.5940229 185.247479,69.4316239 L185.247479,31.0726496 L195.180388,31.0726496 Z M214.054516,71.6837607 L211.967166,65.2179487 L209.663882,57.7350427 L209.303994,57.7350427 L209.303994,81.5641026 L199.587017,81.5641026 L199.587017,31 L208.728173,31 L213.694628,44.5128205 L217.077576,54.5384615 L217.509442,54.5384615 L220.964367,44.2948718 L225.858844,31 L235,31 L235,81.5641026 L225.211045,81.5641026 L225.211045,57.9529915 L224.923135,57.9529915 L222.547874,65.7991453 L220.604479,71.6837607 L214.054516,71.6837607 Z" id="FLARUM" fill="#FFFFFF" sketch:type="MSShapeGroup" opacity="0">
                <animate begin="0.5s" dur="0.5s" attributeType="CSS" attributeName="opacity" from="0" to="1" fill="freeze" />
                <animateTransform begin="0.5s" attributeName="transform" type="translate" dur="0.9s" from="-10 0" to="0 0" fill="freeze" calcMode="spline" keySplines="0.2 0.5 0.2 1" keyTimes="0;1" />
            </path>
            <g id="emblem" opacity="0">
                <path d="M22.1469607,31 L0,31 L0,66 L44,66 L44,31 L22.1469607,31 Z" id="bottom-closed" fill="#4A1507" sketch:type="MSShapeGroup">
                    <animate begin="0.5s" dur="0.7s" attributeName="d" values="
    M0,66 L0,31 L12.8804474,20.957431 L24.7809086,11.6789331 L24.7809078,48.9280505 L0,66 Z;
    M0,66 L0,31 L21.9500618,31 L43.9001236,31 L43.9001236,66 L0,66 Z;
    M0,66 L0,31.0437851 L12.4594225,37.9507658 L24.3918653,44.5656111 L24.7809078,81.9280505 L0,66 Z;"
                fill="freeze"  calcMode="spline" keySplines="0.2 0.5 0.2 0.7;0.2 0.2 0.2 1" keyTimes="0;0.2;1" />
                </path>
                <path d="M0,31 L0,66 L12,35 L12,0 L0,31 Z" id="top-closed" fill="#9C2F11" sketch:type="MSShapeGroup">
                    <animate begin="0.5s" dur="0.7s" attributeName="d" values="
    M6.00723717,15.481304 L0,31 L0,66 L12,35 L12,0 L6.00723717,15.481304 Z;
    M15.8151664,25.5635366 L0,31 L0,66 L32,55 L32,20 L15.8151664,25.5635366 Z;
    M21.7722376,31 L0,31 L0,66 L44,66 L44,31 L21.7722376,31 Z;"
                fill="freeze" calcMode="spline" keySplines="0.5 0.5 0.5 0.5;0.2 0.5 0.2 1" keyTimes="0;0.3;1" />
                </path>
                <animate begin="0.5s" dur="0.5s" attributeType="CSS" attributeName="opacity" from="0" to="1" fill="freeze" />
                <animateTransform begin="0.5s" attributeName="transform" type="translate" dur="0.7s" from="0 -20" to="0 0" fill="freeze" calcMode="spline" keySplines="0.2 0.5 0.2 1" keyTimes="0;1" />
            </g>
        </g>
    </g>
</svg>
